<?xml version="1.0" standalone="no"?>
<!DOCTYPE svg PUBLIC "-//W3C//DTD SVG 20010904//EN"
 "http://www.w3.org/TR/2001/REC-SVG-20010904/DTD/svg10.dtd">
<svg version="1.0" xmlns="http://www.w3.org/2000/svg"
 width="747.000000pt" height="747.000000pt" viewBox="0 0 747.000000 747.000000"
 preserveAspectRatio="xMidYMid meet">
<metadata>
Created by potrace 1.11, written by Peter Selinger 2001-2013
</metadata>
<g transform="translate(0.000000,747.000000) scale(0.100000,-0.100000)"
fill="#000000" stroke="none">
<path d="M3225 7125 c-95 -22 -370 -111 -411 -133 -10 -5 -62 -24 -114 -42
-52 -17 -108 -38 -125 -45 -16 -7 -73 -28 -125 -45 -116 -39 -205 -95 -284
-179 -69 -72 -74 -79 -87 -103 -6 -13 -24 -39 -39 -58 -15 -19 -61 -101 -103
-182 -42 -81 -95 -175 -117 -210 -40 -63 -220 -418 -220 -434 0 -5 -20 -44
-44 -86 -24 -42 -54 -107 -66 -144 -12 -36 -29 -78 -36 -93 -8 -14 -14 -31
-14 -38 0 -6 -3 -13 -7 -15 -11 -4 -90 -233 -124 -358 -34 -128 -37 -244 -14
-598 9 -128 17 -293 18 -365 l2 -133 -34 -67 c-18 -36 -46 -81 -62 -99 -43
-49 -43 -50 -63 -95 -27 -60 -19 -178 17 -254 14 -31 33 -62 42 -69 8 -7 15
-16 15 -21 0 -8 15 -28 68 -88 12 -14 66 -71 120 -126 54 -55 112 -120 130
-145 99 -138 120 -169 141 -214 33 -71 59 -160 72 -246 22 -145 82 -356 134
-465 51 -109 239 -351 350 -450 37 -33 77 -69 88 -80 12 -11 42 -36 67 -55 25
-19 67 -60 95 -90 67 -73 96 -101 195 -190 85 -76 243 -234 400 -400 91 -97
150 -135 239 -155 133 -32 491 -45 701 -26 148 13 237 60 310 161 14 19 41 53
61 75 20 22 49 55 65 74 59 70 113 119 169 155 39 25 194 181 225 226 36 53
197 208 264 253 33 23 75 56 95 74 20 18 39 33 43 33 4 0 15 15 24 33 9 17 20
34 24 37 14 9 50 88 76 167 14 43 41 110 59 149 39 84 85 211 110 309 39 148
85 185 260 204 38 5 92 19 118 31 60 28 148 116 173 172 10 24 21 45 25 48 6
5 38 60 92 160 19 36 53 98 76 139 23 41 44 86 48 100 3 14 9 28 12 31 4 3 15
25 26 50 10 25 34 69 52 98 18 29 33 54 33 57 0 2 22 41 49 85 79 132 91 257
36 378 -36 78 -67 108 -160 152 -44 21 -94 52 -112 69 -53 53 -57 81 -43 275
8 106 11 251 7 381 -5 182 -9 229 -35 350 -17 77 -35 152 -40 166 -6 14 -13
52 -17 85 -12 108 -114 398 -206 589 -21 44 -47 103 -57 130 -29 77 -127 229
-183 282 -34 32 -65 76 -94 135 -24 48 -60 106 -81 129 -94 103 -122 128 -170
152 -29 15 -74 47 -100 73 -45 43 -170 113 -252 142 -18 6 -76 18 -130 27
-226 36 -342 58 -426 81 -240 67 -464 92 -901 99 -214 4 -237 2 -330 -20z"/>
</g>
</svg>
